<svg xmlns:xlink="http://www.w3.org/1999/xlink" id="logo_svg__Layer_1" xmlns="http://www.w3.org/2000/svg" x="0" y="0" viewBox="0 0 505 81" xml:space="preserve" width="505"  height="81" ><style>.logo_svg__st4{fill:#ffc91f}.logo_svg__st7{fill:#2d2d2d}</style><path class="logo_svg__st4" d="M39.2 23.1c1 0 1.8.4 2.5 1.1.8.7 1.2 1.6 1.2 2.7 0 .4-.1.8-.2 1.2-.1.4-.2.7-.5 1.1L28.1 49.4l1.1-4.3v17.8c0 1.1-.4 2-1.1 2.7-.7.7-1.5 1.1-2.5 1.1s-1.9-.4-2.7-1.1c-.7-.7-1.1-1.7-1.1-2.7V45.6l.5 2L8.9 29.8c-.4-.5-.7-1.1-.9-1.6s-.2-.9-.2-1.4c0-1.1.4-2 1.3-2.7.9-.7 1.8-1.1 2.7-1.1 1.2 0 2.2.6 3 1.7l11.9 16.4-1.7-.2 11-16.1c1-1.1 2.1-1.7 3.2-1.7zm13.1.2h20.8c1.1 0 2 .3 2.7 1.1.7.7 1.1 1.5 1.1 2.6 0 1-.4 1.9-1.1 2.5-.7.6-1.6.9-2.7.9H55.7l.6-1.1v12.1l-.5-.5h14.5c1.1 0 2 .4 2.7 1.1.7.7 1.1 1.5 1.1 2.6 0 1-.4 1.9-1.1 2.5-.7.6-1.6.9-2.7.9H56l.3-.5V60l-.5-.6h17.3c1.1 0 2 .4 2.7 1.1s1.1 1.5 1.1 2.5-.4 1.9-1.1 2.5c-.7.7-1.6 1-2.7 1H52.3c-1.1 0-2-.4-2.7-1.1s-1.1-1.7-1.1-2.7V27.1c0-1.1.4-2 1.1-2.7.7-.7 1.6-1.1 2.7-1.1zM108 59.5c1.1 0 2 .3 2.7 1.1.7.7 1.1 1.5 1.1 2.6 0 1-.4 1.9-1.1 2.6-.7.7-1.6 1-2.7 1H87.8c-1.1 0-2-.3-2.7-1.1C84.4 65 84 64 84 63V27.1c0-1.1.4-2 1.1-2.7.7-.7 1.7-1.1 2.9-1.1 1 0 1.9.4 2.6 1.1.8.7 1.2 1.6 1.2 2.7v33.4l-1.4-1.1 17.6.1zm34.8 0c1.1 0 2 .3 2.7 1.1.7.7 1.1 1.5 1.1 2.6 0 1-.4 1.9-1.1 2.6-.7.7-1.6 1-2.7 1h-20.2c-1.1 0-2-.3-2.7-1.1-.7-.7-1.1-1.7-1.1-2.7V27.1c0-1.1.4-2 1.1-2.7.7-.7 1.7-1.1 2.9-1.1 1 0 1.9.4 2.6 1.1.8.7 1.2 1.6 1.2 2.7v33.4l-1.4-1.1 17.6.1zm140.7-36.4c1 0 1.9.4 2.7 1.1.9.7 1.3 1.7 1.3 2.9 0 .4-.1.8-.2 1.2l-12.2 36c-.2.7-.7 1.3-1.4 1.7-.6.4-1.3.6-2 .6s-1.4-.2-2.1-.6c-.7-.4-1.2-1-1.6-1.8l-9.2-20.8.6.4-9.1 20.5c-.4.8-.9 1.4-1.6 1.8-.7.4-1.3.6-2 .6s-1.3-.2-2-.6-1.1-1-1.4-1.7l-12.2-36c-.1-.5-.2-.9-.2-1.2 0-1.2.4-2.2 1.3-2.9.9-.7 1.8-1.1 2.8-1.1.8 0 1.5.2 2.2.6.7.4 1.2 1 1.4 1.8l9.9 29.9-1.4-.1 8.8-21.2c.3-.7.8-1.3 1.4-1.7.6-.5 1.3-.7 2.1-.6.8 0 1.5.2 2.1.6.6.4 1.1 1 1.4 1.7l8.1 20.2-1 .6 9.7-29.5c.2-.8.7-1.4 1.4-1.8.9-.4 1.6-.6 2.4-.6z" id="logo_svg__Shape_6_" fill="#FFC91F"></path><g id="logo_svg__Oval_20_"><path class="logo_svg__st4" d="M187.5 75.9c-19.7 0-35.6-16-35.6-35.6 0-19.7 16-35.6 35.6-35.6s35.6 16 35.6 35.6c.1 19.7-15.9 35.6-35.6 35.6zm0-68.2c-18 0-32.6 14.6-32.6 32.6s14.6 32.6 32.6 32.6 32.6-14.6 32.6-32.6-14.6-32.6-32.6-32.6z" fill="#FFC91F"></path><path class="logo_svg__st4" d="M187.5 77.4c-20.5 0-37.1-16.6-37.1-37.1S167 3.2 187.5 3.2s37.1 16.6 37.1 37.1c.1 9.9-3.8 19.2-10.7 26.2-7 7-16.4 10.9-26.4 10.9zm-34.1-37.1c0 18.8 15.3 34.1 34.1 34.1 9.2 0 17.8-3.6 24.2-10.1 6.4-6.4 9.9-15 9.8-24v-.1.1c0 18.8-15.3 34.1-34.1 34.1s-34-15.3-34-34.1zm34.1-31.1c-17.1 0-31.1 14-31.1 31.1s14 31.1 31.1 31.1 31.1-14 31.1-31.1-14-31.1-31.1-31.1z" fill="#FFC91F"></path></g><g id="logo_svg__Oval_19_"><circle class="logo_svg__st4" cx="180.6" cy="25.9" r="3.1" fill="#FFC91F"></circle><path class="logo_svg__st4" d="M180.6 30.1c-2.3 0-4.2-1.9-4.2-4.2s1.9-4.2 4.2-4.2c2.3 0 4.3 1.9 4.3 4.2s-2 4.2-4.3 4.2zm0-6.2c-1.1 0-1.9.9-1.9 2s.9 2 1.9 2 2-.9 2-2-.9-2-2-2z" fill="#FFC91F"></path></g><g id="logo_svg__Oval_18_"><circle class="logo_svg__st4" cx="202.4" cy="33.7" r="3.1" fill="#FFC91F"></circle><path class="logo_svg__st4" d="M202.4 37.9c-2.3 0-4.3-1.9-4.3-4.2 0-2.3 1.9-4.2 4.3-4.2 2.3 0 4.2 1.9 4.2 4.2.1 2.3-1.9 4.2-4.2 4.2zm0-6.1c-1.1 0-2 .9-2 2s.9 1.9 2 1.9 1.9-.9 1.9-1.9-.8-2-1.9-2z" fill="#FFC91F"></path></g><g id="logo_svg__Path_6_"><path class="logo_svg__st4" d="M187.1 46.9c-1 0-2-.2-3-.5-3.9-1.5-6-5.7-6.8-9.1-.1-.5.2-1.1.8-1.2.5-.1 1.1.2 1.2.8.6 2.8 2.4 6.5 5.6 7.7 2.6 1 5.9.1 9.6-2.5.4-.3 1.1-.2 1.4.2.3.4.2 1.1-.2 1.4-3.2 2.1-6 3.2-8.6 3.2z" fill="#FFC91F"></path><path class="logo_svg__st4" d="M187.1 48c-1 0-2.1-.2-3.3-.5-5.4-2.1-7.2-8.1-7.6-9.9-.1-.6 0-1.2.3-1.7s.8-.8 1.4-.9c.5-.1 1.2 0 1.6.4.5.3.8.8.9 1.4.5 2.5 2.1 5.8 4.9 6.8 2.2.8 5.1 0 8.5-2.4.9-.7 2.3-.5 3 .4.7.9.5 2.3-.4 3-3.6 2.4-6.5 3.4-9.3 3.4zm8.1-5z" fill="#FFC91F"></path></g><path class="logo_svg__st7" d="M339.6 28.6c.3.2.5.5.5.8s0 .5-.2.8-.4.4-.7.4-.5-.1-.8-.2c-1.6-1.1-3.3-2-5.2-2.6-1.8-.6-3.8-1-5.9-1-2.4 0-4.7.5-6.8 1.4s-3.9 2.1-5.5 3.7-2.8 3.5-3.7 5.8c-.9 2.2-1.4 4.7-1.4 7.3 0 2.7.5 5.1 1.4 7.3s2.1 4.1 3.7 5.8c1.6 1.6 3.4 2.9 5.5 3.8s4.4 1.3 6.8 1.3c2.1 0 4.1-.3 5.9-1 1.8-.6 3.6-1.5 5.1-2.5.3-.2.5-.3.8-.2.3 0 .5.2.7.5s.3.5.2.8c0 .3-.2.5-.5.7-.9.6-2 1.3-3.4 1.9s-2.8 1.1-4.3 1.4c-1.5.4-3.1.6-4.6.6-2.7 0-5.2-.5-7.6-1.5-2.4-1-4.5-2.4-6.3-4.2-1.8-1.8-3.2-4-4.3-6.4-1-2.5-1.5-5.2-1.5-8.1 0-2.9.5-5.6 1.5-8.1 1.1-2.5 2.5-4.6 4.3-6.4 1.8-1.8 3.9-3.3 6.3-4.3s4.9-1.5 7.6-1.5c2.3 0 4.5.3 6.6 1 2.2.6 4.1 1.5 5.8 2.7z" fill="#2D2D2D"></path><path class="logo_svg__st7" d="M327.2 66.9c-2.9 0-5.6-.5-8.2-1.6-2.6-1.1-4.9-2.6-6.8-4.5-1.8-1.8-3.4-4.1-4.6-6.8-1.1-2.7-1.6-5.6-1.6-8.7 0-3.1.5-6 1.6-8.7 1.2-2.7 2.7-5 4.6-6.9 2-2 4.3-3.6 6.8-4.6 2.6-1.1 5.3-1.6 8.2-1.6 2.6 0 4.9.4 7.1 1.1 2.3.6 4.3 1.6 6.2 2.9.7.5 1.1 1.2 1.1 2 0 .4 0 1-.4 1.6-.5.7-1.1 1.1-2 1.1-.5 0-.9-.1-1.1-.2l-.3-.1-.2-.1c-1.6-1.1-3.2-1.9-4.8-2.4-4.1-1.4-8-1.2-11.7.3-1.9.8-3.6 1.9-5 3.4-1.4 1.4-2.5 3.2-3.4 5.3-.9 2.1-1.3 4.4-1.3 6.8 0 2.4.4 4.6 1.3 6.7.8 2.1 2 3.8 3.4 5.3 1.5 1.5 3.2 2.7 5 3.5 1.8.8 3.9 1.2 6.2 1.2 2 0 3.8-.3 5.4-.9 1.7-.6 3.4-1.4 4.8-2.4.3-.2 1-.6 1.9-.4.7.1 1.2.5 1.7 1.2.2.3.6 1 .4 1.9-.1.7-.5 1.2-1.2 1.7-1 .7-2.2 1.4-3.6 2-1.7.7-3.2 1.2-4.6 1.5-1.5.2-3.2.4-4.9.4z" fill="#2D2D2D"></path><path class="logo_svg__st7" d="M327.3 66.3c-2.8 0-5.5-.5-8-1.6s-4.7-2.5-6.5-4.4c-1.9-1.9-3.4-4.2-4.5-6.7-1.1-2.6-1.6-5.4-1.6-8.5s.5-5.9 1.6-8.4c1.1-2.6 2.6-4.8 4.5-6.7s4.1-3.4 6.5-4.5c4.6-2 10.1-2.1 14.8-.5 2.2.7 4.2 1.7 6 2.9.6.5.8 1 .8 1.4.1.5-.1.9-.3 1.4-.4.5-.8.8-1.4.9-.5 0-.9-.1-1.3-.3-1.6-1.1-3.2-1.9-5-2.5-3.7-1.3-8.3-1.2-12.1.4-2 .8-3.7 2-5.2 3.5s-2.7 3.4-3.5 5.5c-.9 2.1-1.3 4.5-1.3 7s.4 4.9 1.3 7c.9 2.1 2 3.9 3.5 5.5 1.5 1.5 3.2 2.7 5.2 3.6 3.7 1.5 8.3 1.6 12.1.3 1.8-.6 3.4-1.4 4.9-2.4.4-.3.9-.4 1.4-.4.5.1 1 .3 1.3.8.3.4.4 1 .4 1.5-.1.5-.3 1-.8 1.3-.9.7-2.2 1.3-3.6 2-1.4.6-2.9 1.1-4.5 1.5-1.5.2-3.1.4-4.7.4zm0-40.6c-2.6 0-5 .5-7.3 1.5s-4.3 2.3-6 4.1c-1.7 1.7-3.1 3.8-4.1 6.2-1 2.3-1.5 4.9-1.5 7.7s.5 5.4 1.5 7.8c1 2.3 2.4 4.4 4.1 6.1 1.7 1.7 3.7 3.1 6 4 3.5 1.5 7.6 1.9 11.7.9 1.5-.3 2.9-.8 4.2-1.4s2.4-1.2 3.3-1.8c.1-.2.1-.3 0-.4-.2-.1-.3-.1-.4 0-1.7 1.1-3.5 2-5.4 2.7-4.1 1.4-9.2 1.3-13.3-.4-2.2-.9-4.1-2.3-5.8-4-1.6-1.7-3-3.7-3.9-6S309 47.8 309 45s.5-5.3 1.4-7.7c.9-2.3 2.3-4.3 3.9-6 1.7-1.7 3.6-3 5.8-3.9 4.1-1.8 9.2-1.8 13.3-.4 1.9.7 3.8 1.6 5.4 2.7.1 0 .2.1.3.1.1-.2.1-.3.1-.3 0-.1-.1-.1-.2-.2-1.6-1.1-3.5-2-5.5-2.7-1.9-.6-4-.9-6.2-.9z" fill="#2D2D2D"></path><path class="logo_svg__st7" d="M327.3 67.8c-3.1 0-6-.6-8.6-1.7-2.9-1.3-5.2-2.8-7-4.7-1.9-1.9-3.6-4.3-4.8-7.1-1.2-2.8-1.7-5.7-1.7-9.1 0-3.4.6-6.4 1.7-9 1.2-2.7 2.7-5.1 4.8-7.2 2-2 4.3-3.6 6.9-4.8 4.8-2.1 10.8-2.3 15.9-.6 2.2.7 4.3 1.7 6.3 3.1l.1.1c1.1.9 1.3 1.8 1.3 2.4.1.8-.1 1.5-.3 2l-.1.4-.1.2c-.4.5-1.1 1.2-2.3 1.4h-.2c-.7 0-1.3-.1-2-.5l-.2-.1c-1.5-1-3-1.8-4.6-2.3-3.4-1.2-7.7-1.1-11 .4-1.7.7-3.3 1.7-4.7 3.2-1.3 1.3-2.4 3.1-3.2 5-.8 1.9-1.2 4-1.2 6.5 0 2.4.4 4.6 1.2 6.4.9 2.1 1.9 3.7 3.2 5.1 1.4 1.4 2.9 2.5 4.7 3.3 3.3 1.3 7.5 1.4 11 .2 1.6-.5 3.1-1.3 4.6-2.2.6-.4 1.3-.7 2.2-.7h.3c1 .2 1.8.7 2.3 1.4.6.8.7 1.8.7 2.3v.3c-.2 1-.7 1.8-1.4 2.2-.9.7-2 1.2-3.2 1.8l-.6.3c-1.5.7-3.1 1.2-4.8 1.6h-.2c-1.7.2-3.3.4-5 .4zM374.1 62.6c.3 0 .6.1.8.3.2.2.3.5.3.8s-.1.6-.3.8c-.2.2-.5.3-.8.3h-20.7c-.3 0-.6-.1-.8-.3-.2-.2-.3-.5-.3-.8V26.5c0-.3.1-.6.3-.8s.5-.3.8-.3.6.1.8.3.3.5.3.8v37.1l-1-1h20.6z" fill="#2D2D2D"></path><path class="logo_svg__st7" d="M356 67.2l-.9-.9h-1.7c-.7 0-1.4-.3-1.9-.7-.5-.5-.7-1.2-.7-1.9V62l-.9-.9h.9V26.5c0-.7.3-1.4.7-1.9.9-.9 2.8-.9 3.7 0 .5.5.7 1.1.7 1.9v34.6H374c.7 0 1.4.3 1.9.7.5.5.7 1.1.7 1.9 0 .7-.3 1.4-.7 1.9-.5.5-1.2.7-1.9.7h-18v.9z" fill="#2D2D2D"></path><g><path class="logo_svg__st7" d="M374.1 65.7h-20.7c-.6 0-1.1-.2-1.5-.6s-.5-.9-.5-1.4V26.5c0-.5.2-1 .6-1.4.7-.8 2.1-.8 2.9 0 .4.4.6.9.6 1.4v35.2h18.6c.5 0 1 .2 1.4.6s.6.9.6 1.4c0 .6-.2 1.1-.6 1.5-.4.3-.9.5-1.4.5zM355.5 64h18.6c.1 0 .2 0 .2-.1v-.2s0-.1-.1-.2-.1-.1-.2-.1h-18.6l.1.6zm-2.3-.1H353.8l-.6-.6V63.9zm0-2.2h.6V26.5s0-.1-.1-.2-.4-.1-.5 0-.1.1-.1.2l.1 35.2z" fill="#2D2D2D"></path><path class="logo_svg__st7" d="M374.1 67.2h-20.7c-1 0-1.9-.4-2.6-1-.6-.6-.9-1.4-.9-2.5V26.5c0-.9.4-1.8 1-2.4.6-.7 1.5-1 2.4-1.1 1 0 2 .3 2.7 1 .7.7 1 1.5 1 2.5v33.7h17.1c.9 0 1.8.4 2.5 1 .7.7 1 1.5 1 2.5s-.4 1.9-1 2.6l-.2.1c-.7.5-1.5.8-2.3.8z" fill="#2D2D2D"></path></g><g><path class="logo_svg__st7" d="M402.1 28.2l-14.3 35.9c-.1.2-.2.4-.4.6-.2.1-.4.2-.6.2-.4 0-.7-.1-.8-.3-.2-.2-.3-.4-.3-.7 0-.1 0-.3.1-.6l15-37.3c.1-.3.2-.5.4-.6s.4-.2.7-.2.5.1.7.2c.2.1.3.3.4.5l15.2 37.3c0 .1.1.3.1.5 0 .3-.1.6-.3.8-.2.2-.5.3-.8.3s-.5-.1-.7-.2-.3-.3-.4-.6l-14.7-36.3.7.5z" fill="#2D2D2D"></path><path class="logo_svg__st7" d="M399.8 24.7c.2-.2.4-.5.8-.6.3-.1.7-.4 1.4-.4s1.1.2 1.4.4c.6.3.9.9 1.1 1.2v.1L419.8 63c0 .2.1.4.1.7 0 .7-.3 1.4-.7 1.9s-1.1.7-1.9.7c-.7 0-1.1-.2-1.4-.4-.8-.4-1-1.1-1.1-1.5L402 32.8l-12.7 31.9c-.1.2-.3.6-.7 1l-.2.2-.2.1c-.3.1-.7.4-1.3.4-1.1 0-1.7-.5-2-.9-.4-.5-.6-1-.6-1.6 0-.1 0-.5.2-1.1l14.8-36.7m-12 37.8zm-.1 0zm.1-.1z" fill="#2D2D2D"></path><g><path class="logo_svg__st7" d="M417.1 65.7c-.4 0-.8-.1-1.1-.3l-.2-.1c-.3-.3-.5-.6-.7-1l-13.4-33-13.1 33c-.1.3-.3.7-.7.9-1.1.7-2 .4-2.6-.2-.3-.3-.5-.7-.6-1.2-.1-.3 0-.6.1-1l14.9-36.6-.2-.5.3.2.2-.4c.2-.5.5-.8.8-1 .5-.3 1.7-.4 2.3.2.3.1.5.5.7.9L419 63c.1.3.1.5.1.8 0 .6-.2 1.1-.6 1.5-.4.2-.9.4-1.4.4zm-.3-1.8c.2.1.5 0 .5 0v-.3L403 28.2l-.3.8 14.1 34.7v.2zm-30.2 0s.2.1.4 0c-.1 0 0 0 0-.1L400.8 29l-.1-.4-14.2 34.9c0 .3 0 .4.1.4zm14.8-37l1.4.7-.7-1.5h-.4s0 .1-.1.1l-.2.7z" fill="#2D2D2D"></path><path class="logo_svg__st7" d="M390.4 63.9l-.4 1c-.2.7-.7 1.3-1.3 1.6-1.5.9-3.2.8-4.4-.4-.5-.5-.8-1.1-1-1.9-.2-.6 0-1.2.1-1.6l.1-.3 14.7-36 .6-1.2s.3-.5.7-1.2c.1-.2.4-.4.6-.5 1-.6 2.8-.8 4 .2.6.4 1 1 1.2 1.5l.1.1 15.2 37.4c.2.6.2 1 .2 1.4 0 1-.4 1.9-1 2.6l-.2.2-.2.1c-.8.4-1.4.6-2.1.6-.7 0-1.3-.2-1.8-.5l-.3-.2-.2-.2c-.4-.4-.7-.8-1-1.4v-.1l-12-29.5-11 26.8" fill="#2D2D2D"></path></g></g><g><path class="logo_svg__st7" d="M391.6 52.6l.8-2.3h18.3l.6 2.3z" fill="#2D2D2D"></path><path class="logo_svg__st7" d="M413.2 54.1h-23.7l1.8-5.3h20.6z" fill="#2D2D2D"></path><g><path class="logo_svg__st7" d="M412.4 53.5h-22l1.4-4h19.6l1 4zm-19.5-1.8h17.3l-.1-.5h-17l-.2.5z" fill="#2D2D2D"></path><path class="logo_svg__st7" d="M414.3 55h-26l2.4-7h21.9z" fill="#2D2D2D"></path></g></g><g><path class="logo_svg__st7" d="M442.7 65.4c-2.9 0-5.5-.5-7.6-1.5s-4.1-2.5-6.1-4.5c-.1-.1-.1-.2-.2-.3-.1-.1-.1-.3-.1-.6s.1-.6.4-.8c.3-.3.5-.5.8-.5s.7.2 1 .5c1.5 1.7 3.3 3 5.2 3.9 2 .9 4.1 1.4 6.3 1.4 1.9 0 3.6-.3 5.1-.9s2.7-1.5 3.6-2.7 1.3-2.5 1.3-4.1c0-1.9-.6-3.5-1.6-4.6-1-1.2-2.3-2.1-3.9-2.9-1.6-.7-3.3-1.4-5-2.1-1.4-.5-2.8-1.1-4.1-1.6-1.4-.6-2.6-1.2-3.7-2s-2-1.8-2.6-3-1-2.8-1-4.6.5-3.5 1.5-5 2.4-2.7 4.3-3.6c1.9-.9 4.1-1.4 6.7-1.4 2.1 0 4.2.4 6.3 1.2 2 .8 3.6 1.9 4.8 3.4.4.5.6.9.6 1.2s-.1.5-.5.8c-.3.3-.6.4-.9.4s-.5-.1-.7-.3c-.7-.9-1.5-1.7-2.5-2.3-.9-.7-2-1.2-3.2-1.5-1.2-.4-2.5-.6-3.8-.6-1.8 0-3.5.3-5 .9-1.5.6-2.7 1.5-3.6 2.6s-1.4 2.4-1.4 4.1c0 1.7.5 3.2 1.5 4.3s2.3 2 3.8 2.8c1.5.7 3.1 1.4 4.7 2 1.4.5 2.8 1 4.2 1.6 1.4.6 2.7 1.3 3.8 2.1 1.2.9 2.1 2 2.8 3.3.7 1.3 1 3 1 5 0 1.7-.5 3.3-1.5 4.8s-2.4 2.7-4.2 3.6c-1.8 1-3.9 1.4-6.5 1.5z" fill="#2D2D2D"></path><path class="logo_svg__st7" d="M442.7 66.9c-3.2 0-6-.6-8.3-1.6-2.2-1.1-4.3-2.6-6.5-4.8-.2-.2-.3-.3-.3-.5-.4-.5-.4-1.1-.4-1.5 0-.8.3-1.5.9-1.9.4-.4.9-.9 1.8-.9.7 0 1.5.4 2.1.9 1.4 1.6 3 2.7 4.8 3.6 1.8.8 3.8 1.3 5.7 1.3 1.7 0 3.2-.3 4.5-.8 1.3-.5 2.2-1.2 3-2.2.7-.9 1-1.9 1-3.2 0-1.5-.4-2.7-1.2-3.6-.8-1-1.9-1.8-3.5-2.6-1.5-.7-3.2-1.4-4.9-2.1-.8-.3-1.7-.7-2.6-1l-1.5-.6c-1.3-.5-2.7-1.2-4-2.2-1.3-1-2.4-2.2-3.1-3.5-.7-1.5-1.2-3.4-1.2-5.3 0-2.1.6-4.1 1.8-5.8 1.2-1.8 2.8-3.1 4.9-4.1 2.2-1 4.6-1.5 7.3-1.5 2.3 0 4.6.4 6.8 1.3 2.3.9 4.1 2.2 5.4 3.9.6.8.9 1.5.9 2.1 0 1-.6 1.6-1 1.9-1.1 1-2.6 1-3.6 0l-.1-.1c-.7-.9-1.3-1.5-2.1-1.9l-.1-.1c-.7-.5-1.6-1-2.6-1.2h-.1c-1-.3-2.2-.5-3.3-.5-1.6 0-3.1.3-4.4.8-1.2.5-2.2 1.2-3 2.2-.7.9-1.1 1.9-1.1 3.1 0 1.4.4 2.5 1.1 3.3.8.9 1.9 1.7 3.4 2.5 1.6.8 3.1 1.4 4.5 1.9s2.8 1 4.3 1.6c1.6.7 3 1.4 4.1 2.3 1.3 1 2.4 2.3 3.2 3.8.8 1.5 1.2 3.3 1.2 5.7 0 2-.6 3.9-1.8 5.6-1.1 1.7-2.7 3.1-4.8 4.1-1.9 1-4.1 1.5-7.2 1.6zm-12.8-8zm23.3-28.4z" fill="#2D2D2D"></path><g><path class="logo_svg__st7" d="M442.4 66.3c-2.9 0-5.5-.5-7.6-1.6-2.2-1.1-4.3-2.6-6.3-4.6-.1-.1-.2-.3-.3-.4-.2-.4-.3-.7-.3-1 0-.4.1-.9.6-1.5.4-.5.9-.7 1.5-.7.4 0 1 .1 1.6.8 1.4 1.6 3.1 2.9 5 3.7 3.6 1.6 7.8 1.6 10.8.4 1.3-.6 2.4-1.4 3.2-2.4.7-1 1.1-2.2 1.1-3.5 0-1.7-.5-3-1.4-4.1s-2.2-2-3.7-2.7c-1.6-.7-3.2-1.4-4.9-2.1-1.4-.5-2.8-1.1-4.2-1.7-1.4-.6-2.7-1.3-3.8-2.1-1.2-.9-2.2-2-2.9-3.3-.7-1.4-1.1-3-1.1-5s.5-3.8 1.6-5.4c1.1-1.6 2.7-2.9 4.6-3.9 2-1 4.4-1.4 7-1.4 2.2 0 4.4.4 6.6 1.2s3.9 2.1 5.2 3.7c.5.7.7 1.2.7 1.7s-.3 1-.7 1.4c-.8.8-2.2.8-2.9 0-.6-.8-1.4-1.6-2.3-2.1-.9-.6-1.9-1.1-3-1.4-2.7-.8-5.9-.7-8.3.3-1.4.5-2.5 1.3-3.3 2.3s-1.2 2.1-1.2 3.5c0 1.5.4 2.7 1.3 3.7s2.1 1.9 3.6 2.6c1.5.7 3.1 1.3 4.7 1.9 1.4.5 2.8 1 4.3 1.7 1.5.6 2.8 1.3 4 2.3 1.3.9 2.3 2.1 3 3.6.7 1.4 1.1 3.2 1.1 5.4 0 1.9-.6 3.7-1.7 5.3-1 1.6-2.6 2.9-4.5 3.8-1.9 1-4.2 1.5-6.9 1.5.1.1-.1.1-.2.1zm-12.7-7.5c1.9 1.9 3.9 3.4 5.9 4.3 2 1 4.4 1.4 7.2 1.4 2.4 0 4.4-.5 6.1-1.3s2.9-1.9 3.8-3.3c.9-1.3 1.4-2.8 1.4-4.3 0-1.8-.3-3.4-.9-4.6-.6-1.2-1.4-2.2-2.5-3s-2.3-1.5-3.6-2c-1.4-.6-2.8-1.1-4.2-1.6-1.7-.6-3.3-1.3-4.8-2-1.6-.8-3-1.8-4.1-3-1.1-1.3-1.7-2.9-1.7-4.9 0-1.8.5-3.4 1.6-4.6 1-1.2 2.3-2.2 4-2.8 2.8-1.1 6.4-1.3 9.4-.4 1.3.4 2.4.9 3.5 1.7 1 .7 1.9 1.5 2.7 2.5.1 0 .2 0 .3-.1l.2-.2s-.1-.2-.4-.6c-1-1.4-2.5-2.4-4.4-3.1-1.9-.8-3.9-1.1-6-1.1-2.4 0-4.5.4-6.3 1.3-1.7.8-3 1.9-3.9 3.3-.9 1.3-1.3 2.8-1.3 4.5s.3 3.1.9 4.2c.6 1.1 1.4 2 2.3 2.8 1 .7 2.2 1.4 3.5 1.9 1.3.6 2.7 1.1 4.1 1.6 1.7.6 3.5 1.3 5.1 2.1 1.7.8 3.1 1.8 4.2 3.1 1.2 1.3 1.8 3.1 1.8 5.2 0 1.7-.5 3.3-1.5 4.6-1 1.3-2.3 2.2-3.9 2.9-3.5 1.4-8.1 1.3-12.1-.5-2.1-1-4-2.4-5.5-4.2-.1-.1-.2-.2-.3-.2 0 0-.1 0-.2.2-.2.2-.2.2-.2.3-.3-.1-.2-.1-.2-.1z" fill="#2D2D2D"></path><path class="logo_svg__st7" d="M442.4 67.8c-3.3 0-6.1-.6-8.3-1.8-2.4-1.2-4.6-2.8-6.7-4.9-.1-.1-.2-.3-.3-.4l-.2-.2-.1-.2c-.2-.5-.5-1-.5-1.7 0-.9.3-1.7.9-2.5.6-.8 1.6-1.2 2.7-1.2 1 0 2 .5 2.7 1.3 1.3 1.5 2.8 2.6 4.4 3.3 3.1 1.4 6.9 1.5 9.7.4 1.1-.5 2-1.2 2.6-1.9.5-.7.8-1.6.8-2.6 0-1.3-.3-2.3-1.1-3.1-.7-.9-1.8-1.6-3.2-2.3-1.6-.7-3.1-1.4-4.8-2.1-1.4-.5-2.8-1.1-4.2-1.7-1.6-.7-3-1.4-4.1-2.3-1.4-1.1-2.6-2.4-3.3-3.8-.9-1.7-1.3-3.6-1.3-5.7 0-2.3.6-4.5 1.9-6.2 1.2-1.7 2.9-3.2 5.1-4.4 2.1-1 4.7-1.6 7.7-1.6 2.4 0 4.8.4 7.1 1.3 2.3.8 4.3 2.2 5.9 4.2.5.7 1 1.6 1 2.6 0 .9-.4 1.7-1.1 2.5-.7.7-1.7 1.1-2.7 1-.9 0-1.8-.4-2.4-1.1l-.1-.1c-.6-.7-1.2-1.3-1.8-1.7l-.1-.1c-.8-.6-1.7-1-2.6-1.2-2.4-.7-5.3-.6-7.3.2-1.2.4-2 1-2.7 1.9-.6.8-.9 1.5-.9 2.6 0 1.2.3 2 .9 2.7.8.9 1.9 1.7 3.1 2.2 1.4.7 3 1.3 4.6 1.9 1.4.5 2.9 1 4.4 1.7 1.7.7 3.1 1.5 4.3 2.5 1.5 1 2.7 2.4 3.5 4.2.8 1.6 1.2 3.7 1.2 6 0 2.2-.7 4.3-2 6.2-1.1 1.7-2.9 3.2-5.1 4.3-1.9 1-4.3 1.6-7.1 1.6 0 .2-.2.2-.5.2zm0-1.6V66v.2z" fill="#2D2D2D"></path></g></g><g><path class="logo_svg__st7" d="M480.3 65.4c-2.9 0-5.5-.5-7.6-1.5s-4.1-2.5-6.1-4.5c-.1-.1-.2-.2-.2-.3-.1-.1-.1-.3-.1-.6s.1-.6.4-.8c.3-.3.5-.5.8-.5s.7.2 1 .5c1.5 1.7 3.3 3 5.2 3.9 2 .9 4.1 1.4 6.3 1.4 1.9 0 3.6-.3 5.1-.9s2.7-1.5 3.6-2.7 1.3-2.5 1.3-4.1c0-1.9-.6-3.5-1.6-4.6-1-1.2-2.3-2.1-3.9-2.9-1.6-.7-3.3-1.4-5-2.1-1.4-.5-2.8-1.1-4.1-1.6-1.4-.6-2.6-1.2-3.7-2s-2-1.8-2.6-3-1-2.8-1-4.6.5-3.5 1.5-5 2.4-2.7 4.3-3.6c1.9-.9 4.1-1.4 6.7-1.4 2.1 0 4.2.4 6.3 1.2 2 .8 3.6 1.9 4.8 3.4.4.5.6.9.6 1.2s-.1.5-.5.8c-.3.3-.6.4-.9.4s-.5-.1-.7-.3c-.7-.9-1.5-1.7-2.5-2.3-.9-.7-2-1.2-3.2-1.5-1.2-.4-2.5-.6-3.8-.6-1.8 0-3.5.3-5 .9-1.5.6-2.7 1.5-3.6 2.6s-1.4 2.4-1.4 4.1c0 1.7.5 3.2 1.5 4.3s2.3 2 3.8 2.8c1.5.7 3.1 1.4 4.7 2 1.4.5 2.8 1 4.2 1.6 1.4.6 2.7 1.3 3.8 2.1 1.2.9 2.1 2 2.8 3.3.7 1.3 1 3 1 5 0 1.7-.5 3.3-1.5 4.8s-2.4 2.7-4.2 3.6c-1.8 1-4 1.4-6.5 1.5z" fill="#2D2D2D"></path><path class="logo_svg__st7" d="M480.3 66.9c-3.2 0-6-.6-8.3-1.6-2.2-1.1-4.3-2.6-6.5-4.8-.1-.1-.4-.4-.5-.7-.2-.4-.2-.9-.2-1.2 0-.8.3-1.5.9-1.9.4-.4.9-.9 1.8-.9.7 0 1.5.4 2.1.9 1.4 1.6 3 2.7 4.8 3.6 1.8.8 3.8 1.3 5.7 1.3 1.7 0 3.2-.3 4.5-.8 1.3-.5 2.2-1.2 3-2.2.7-.9 1-1.9 1-3.2 0-1.5-.4-2.7-1.2-3.6-.8-1-1.9-1.8-3.5-2.6-1.5-.7-3.2-1.4-4.9-2.1-.8-.3-1.7-.7-2.6-1l-1.5-.6c-1.8-.8-3-1.4-4-2.2-1.3-1-2.4-2.2-3.1-3.5-.7-1.5-1.2-3.4-1.2-5.3 0-2.1.6-4.1 1.8-5.8 1.2-1.8 2.8-3.1 4.9-4.1 2.2-1 4.6-1.5 7.3-1.5 2.3 0 4.6.4 6.8 1.3 2.3.9 4.1 2.2 5.4 3.9.6.8.9 1.5.9 2.1 0 1-.6 1.6-1 1.9-1.1 1-2.6 1-3.6 0l-.1-.1c-.7-.9-1.3-1.5-2.1-1.9l-.1-.1c-.7-.5-1.6-1-2.6-1.2h-.1c-1-.3-2.2-.5-3.3-.5-1.6 0-3.1.3-4.4.8-1.2.5-2.2 1.2-3 2.2-.7.9-1.1 1.9-1.1 3.2 0 1.4.4 2.5 1.1 3.3.8.9 1.9 1.7 3.4 2.5 1.6.8 3.1 1.4 4.5 1.9s2.8 1 4.3 1.6c1.6.7 3 1.4 4.1 2.3 1.4 1 2.4 2.3 3.2 3.8.8 1.5 1.2 3.3 1.2 5.7 0 2-.6 3.9-1.8 5.6-1.1 1.7-2.7 3.1-4.8 4.1-1.8.7-4.1 1.3-7.2 1.4zm10.5-36.4z" fill="#2D2D2D"></path><g><path class="logo_svg__st7" d="M480 66.3c-2.9 0-5.5-.5-7.6-1.6-2.2-1.1-4.3-2.6-6.3-4.6-.1-.1-.2-.3-.3-.4-.2-.4-.3-.7-.3-1 0-.4.1-.9.6-1.5.4-.5.9-.7 1.5-.7.4 0 1 .1 1.6.8 1.4 1.6 3.1 2.9 5 3.7 3.6 1.6 7.8 1.6 10.8.4 1.3-.6 2.4-1.4 3.2-2.4.7-1 1.1-2.2 1.1-3.5 0-1.7-.5-3-1.4-4.1s-2.2-2-3.7-2.7c-1.6-.7-3.2-1.4-4.9-2.1-1.4-.5-2.8-1.1-4.2-1.7-1.4-.6-2.7-1.3-3.8-2.1-1.2-.9-2.2-2-2.9-3.3-.7-1.4-1.1-3-1.1-5s.5-3.8 1.6-5.4c1.1-1.6 2.7-2.9 4.6-3.9 2-1 4.4-1.4 7-1.4 2.2 0 4.4.4 6.6 1.2s3.9 2.1 5.2 3.7c.5.7.7 1.2.7 1.7s-.3 1-.7 1.4c-.7.8-2.2.8-2.9 0-.6-.8-1.4-1.6-2.3-2.1-.9-.6-1.9-1.1-3-1.4-2.7-.8-5.9-.7-8.3.3-1.4.5-2.4 1.3-3.3 2.3-.8.9-1.2 2.1-1.2 3.5 0 1.5.4 2.7 1.3 3.7s2.1 1.9 3.6 2.6c1.5.7 3.1 1.3 4.7 1.9 1.4.5 2.8 1 4.3 1.6s2.8 1.3 4 2.3c1.3.9 2.3 2.1 3 3.6.7 1.4 1.1 3.2 1.1 5.4 0 1.9-.6 3.7-1.7 5.3-1 1.6-2.6 2.9-4.5 3.8-1.9 1-4.2 1.5-6.9 1.5 0 .2-.1.2-.2.2zm-12.8-7.5c1.9 1.9 3.9 3.4 5.9 4.4s4.4 1.4 7.2 1.4c2.4 0 4.4-.5 6.1-1.3s2.9-1.9 3.8-3.3c.9-1.3 1.4-2.8 1.4-4.3 0-1.8-.3-3.4-.9-4.6-.6-1.2-1.5-2.2-2.5-3-1.1-.8-2.3-1.5-3.6-2-1.4-.6-2.8-1.1-4.2-1.6-1.7-.6-3.3-1.3-4.8-2-1.6-.8-3-1.8-4.1-3-1.1-1.3-1.7-2.9-1.7-4.9 0-1.8.5-3.4 1.6-4.6 1-1.2 2.3-2.2 4-2.8 2.8-1.1 6.4-1.3 9.4-.4 1.3.4 2.5.9 3.5 1.7 1 .7 1.9 1.5 2.7 2.5.1 0 .2 0 .3-.1l.2-.2s-.1-.2-.4-.6c-1-1.4-2.5-2.4-4.4-3.1-1.9-.8-3.9-1.1-6-1.1-2.4 0-4.5.4-6.3 1.3-1.7.8-3 1.9-3.9 3.3-.9 1.3-1.3 2.8-1.3 4.5s.3 3.1.9 4.2c.6 1.1 1.4 2 2.3 2.8 1 .7 2.2 1.4 3.5 1.9 1.3.6 2.7 1.1 4.1 1.6 1.7.6 3.5 1.3 5.1 2.1 1.7.8 3.1 1.8 4.2 3.1s1.8 3.1 1.8 5.2c0 1.7-.5 3.3-1.5 4.6-1 1.3-2.3 2.2-3.9 2.9-3.5 1.4-8.1 1.3-12.1-.5-2.1-1-4-2.4-5.5-4.2-.1-.1-.2-.2-.3-.2 0 0-.1 0-.2.2-.1.1-.2.2-.2.3-.2-.3-.2-.2-.2-.2zm0 0z" fill="#2D2D2D"></path><path class="logo_svg__st7" d="M480 67.8c-3.3 0-6.1-.6-8.3-1.8-2.4-1.2-4.6-2.8-6.7-4.9-.1-.1-.2-.3-.3-.4l-.2-.2-.1-.2c-.2-.5-.5-1-.5-1.7 0-.9.3-1.7.9-2.5.6-.8 1.6-1.2 2.7-1.2 1 0 2 .5 2.7 1.3 1.3 1.5 2.8 2.6 4.4 3.3 3.1 1.4 6.9 1.5 9.7.4 1.1-.5 2-1.2 2.6-1.9.5-.7.8-1.6.8-2.6 0-1.3-.3-2.3-1.1-3.1-.7-.9-1.8-1.6-3.2-2.3l-4.8-2.1c-1.4-.5-2.8-1.1-4.2-1.7-1.6-.7-3-1.4-4.1-2.3-1.4-1.1-2.6-2.4-3.3-3.8-.9-1.7-1.3-3.6-1.3-5.7 0-2.3.6-4.5 1.9-6.2 1.2-1.7 2.9-3.2 5.1-4.4 2.1-1 4.7-1.6 7.7-1.6 2.4 0 4.8.4 7.1 1.3 2.3.8 4.3 2.2 5.9 4.2.5.7 1 1.6 1 2.6 0 .9-.4 1.7-1.1 2.5-.6.6-1.5 1-2.5 1s-2-.4-2.6-1.1l-.1-.1c-.6-.7-1.2-1.3-1.8-1.7l-.1-.1c-.8-.6-1.7-1-2.6-1.2-2.4-.7-5.3-.6-7.3.2-1.1.4-1.9 1-2.8 1.9-.5.6-.8 1.4-.8 2.5 0 1.2.3 2 .9 2.7.8.9 1.9 1.7 3.1 2.2 1.4.7 3 1.3 4.6 1.9 1.4.5 2.8 1 4.3 1.6 1.8.7 3.1 1.5 4.4 2.5 1.5 1 2.7 2.4 3.5 4.2.8 1.6 1.2 3.7 1.2 6 0 2.2-.7 4.3-2 6.1-1.1 1.7-2.9 3.2-5.1 4.3-1.9 1-4.2 1.6-6.9 1.6-.1.4-.4.5-.7.5zm0-1.7v.2-.2z" fill="#2D2D2D"></path></g></g></svg>